<svg xmlns="http://www.w3.org/2000/svg" viewBox="0 0 106.13 87.77"><defs><style>.cls-1{fill:none;stroke:#000;stroke-miterlimit:10;stroke-width:2px;}</style></defs><g id="Layer_2" data-name="Layer 2"><g id="Layer_2-2" data-name="Layer 2"><path class="cls-1" d="M90.5,14.64a10,10,0,0,1-2,10c-3.64,3.8-10,3.36-13.5.38-3.35-2.82-3.47-7.24-3.4-8.43A17.17,17.17,0,0,1,81.1,2.43c7.82-3.63,17.5,0,21.92,7.13a14.43,14.43,0,0,1-1.2,16.7L53,86.14l-.37-.5L4.31,26.26a14.43,14.43,0,0,1-1.2-16.7C7.53,2.42,17.21-1.2,25,2.43a17.17,17.17,0,0,1,9.5,14.16c.07,1.19-.05,5.61-3.4,8.43-3.53,3-9.86,3.42-13.5-.38a10,10,0,0,1-2-10"/></g></g></svg>